<svg xmlns="http://www.w3.org/2000/svg" width="600" height="600">
  <g stroke="#333" stroke-width="8">
    <path d="M207.198 56.348c-.383 9.74-.076 19.486.012 29.227.043 4.732.019 9.465.028 14.197-.26 57.689-.885 115.375-1.743 173.057-.435 14.192-.708 28.39-1.305 42.576-1.365 32.43-2.795 53.914-5.834 86.133-3.04 32.227-7.258 64.323-11.52 96.404l-2.843 20.572c-.988 6.455-2.814 6.176-1.826-.28h0l3.44-20.47c3.034-19.5 6.2-38.95 8.603-58.546 6.77-55.21 10.124-110.791 11.206-166.39.116-13.217.29-26.433.349-39.65.198-44.46-.416-88.919-1.047-133.372-.362-14.49-.938-28.972-1.44-43.458 0-13.859 3.92-13.859 3.92 0zM369.143 55.776c1.499 13.113.696 26.31.154 39.452-1.136 22.446-3.239 44.826-5.037 67.224-2.651 33.022-2.593 36.454-5.917 70.554-1.285 13.173-2.765 26.327-4.147 39.49-1.623 13.166-3.206 26.338-4.87 39.499-3.77 29.83-5.691 42.66-9.167 72.154-3.43 29.1-6.235 58.242-8.772 87.43-1.14 16.841-2.665 33.682-3.224 50.56-.106 3.201-.067 6.405-.1 9.608-.275 10.536-3.255 10.458-2.98-.078h0c.134-3.236.191-6.478.403-9.71 1.107-16.866 3.204-33.663 4.571-50.506 2.97-29.149 6.084-58.277 9.73-87.351 4.669-37.218 10.099-74.34 14.33-111.614 1.359-13.165 2.874-26.315 4.077-39.494 2.518-27.58 3.312-43.415 4.988-70.62 1.379-22.395 2.81-44.789 3.518-67.218.18-12.812.723-25.725-1.368-38.427-3.368-13.474.443-14.426 3.811-.953z"/>
    <path d="M77.1 186.828c2.446.35 4.882.777 7.338 1.051 14.09 1.575 27.33 2.497 41.645 3.196 11.945.583 23.895 1.075 35.85 1.353 31.744.74 62.886.486 94.662.447 54.68-.392 109.364-.958 164.024-2.555 33.347-.974 55.602-2.043 88.278-3.462.28-.012.284.067.003.08h0c-32.677 1.418-54.932 2.487-88.28 3.462-54.66 1.597-109.345 2.163-164.026 2.554-55.571.069-42.083.182-94.668-.224-28.485-.22-57.014-.258-85.45-2.163-13.222-2.203-12.598-5.943.623-3.74zM87.106 345.246c9.562.377 11.865.499 23.419.727 7.412.146 14.826.191 22.239.322 37.879.666 75.754 1.362 113.636 1.907 71.59 1.784 143.064 6.414 214.61 9.28 47.36 1.899 48.995 1.681 94.176 2.445l35.385-.163c1.248-.001 1.248.352 0 .353h0l-35.386-.111c-45.183-.763-46.817-.546-94.179-2.444-71.544-2.867-143.018-7.496-214.607-9.28-14.99-.216-29.98-.555-44.972-.647-12.78-.08-25.56.066-38.34.133-25.328.131-50.67.232-75.981 1.272-13.413 0-13.413-3.794 0-3.794z"/>
  </g>
</svg>